<svg width="94" height="30" viewBox="0 0 94 30" fill="none" xmlns="http://www.w3.org/2000/svg">
<path d="M6.50125 13.071C6.50125 11.5459 6.50125 10.2525 6.50125 8.87214C9.32311 8.87214 12.0752 8.87214 14.9967 8.87214C14.9967 10.4552 14.9967 11.9899 14.9967 13.5247C14.9967 15.3394 14.9668 17.1541 15.0267 18.9687C15.0366 19.268 15.4155 19.8085 15.6349 19.8182C19.085 19.8761 22.535 19.8568 26.2144 19.8568C23.8213 16.1888 23.7116 12.6753 26.2642 9.02658C25.2472 8.96866 24.3797 8.9204 23.4324 8.87214C23.4324 7.72348 23.4324 6.61343 23.4324 5.3972C23.7515 5.36824 24.0905 5.31998 24.4295 5.31998C28.4579 5.31033 32.4863 5.29102 36.5147 5.31998C45.8478 5.38755 51.4616 14.9726 46.795 22.8008C46.3762 23.5055 45.9076 23.7275 45.0999 23.7275C35.5275 23.6985 25.9651 23.7082 16.3927 23.7082C15.9141 23.7082 15.4454 23.7082 14.897 23.7082C14.1492 27.1638 12.0453 29.297 8.45561 29.8569C5.28476 30.3395 2.44295 29.6445 0 27.3569C0.668073 26.3819 1.30623 25.4456 1.77488 24.7603C3.28054 25.3008 4.55686 25.9765 5.90297 26.2082C8.57527 26.6619 10.739 25.0595 10.8687 22.4726C11.0282 19.3935 10.9085 16.3046 10.9085 13.0807C9.48265 13.071 8.06673 13.071 6.50125 13.071ZM33.4535 19.7217C36.4748 19.7217 38.9177 17.3664 38.9277 14.432C38.9477 11.5073 36.5147 9.1038 33.5034 9.08449C30.4821 9.06519 27.9793 11.4494 27.9793 14.3259C27.9793 17.3954 30.3425 19.7217 33.4535 19.7217ZM40.8422 19.8568C41.8094 19.8568 42.637 19.8857 43.4746 19.8375C43.7339 19.8182 44.1327 19.6541 44.2224 19.461C45.4788 16.6714 44.2324 12.4146 41.9889 11.1984C42.9062 14.654 42.8763 14.934 40.8422 19.8568Z" fill="#CE1F2E"/>
<path d="M52.3789 23.6392C52.3789 15.7241 52.3789 7.90547 52.3789 0C53.725 0 55.0213 0 56.5369 0C56.5369 0.444019 56.5369 0.888039 56.5369 1.33206C56.5369 7.12361 56.5469 12.9152 56.517 18.7067C56.517 19.5079 56.6665 19.8747 57.6238 19.8747C67.954 19.8457 78.2742 19.8554 88.6044 19.8457C88.8038 19.8457 89.0033 19.8264 89.1828 19.8168C91.1271 16.3515 88.2355 11.3708 83.7484 11.2067C80.5277 11.0908 77.2871 11.1391 74.0663 11.1198C73.5977 11.1198 73.1291 11.1198 72.5906 11.1198C72.5906 9.75877 72.5906 8.54255 72.5906 7.16222C73.2687 7.16222 73.8869 7.16222 74.5051 7.16222C77.4965 7.16222 80.4878 7.09466 83.4792 7.18153C87.6572 7.30701 90.7881 9.24718 92.7425 12.7897C94.6171 16.1971 94.3379 19.6334 92.2938 22.9153C92.0644 23.2917 91.4562 23.6682 91.0175 23.6682C78.334 23.7068 65.6606 23.6971 52.9772 23.6971C52.8077 23.6971 52.6481 23.6682 52.3789 23.6392Z" fill="#CE1F2E"/>
<path d="M10.4417 4.66419C10.4616 3.25491 11.5784 2.21243 13.0442 2.25104C14.4401 2.28 15.527 3.34178 15.537 4.67384C15.5469 6.01555 14.3703 7.17386 12.9744 7.18351C11.5884 7.20282 10.4217 6.03486 10.4417 4.66419Z" fill="#CE1F2E"/>
<path d="M86.4194 29.9677C84.9736 29.9484 83.8867 28.8576 83.9166 27.4484C83.9465 26.1453 85.1132 25.0449 86.4493 25.0352C87.8353 25.0256 89.0119 26.1839 89.0119 27.5449C89.0119 28.9445 87.8951 29.987 86.4194 29.9677Z" fill="#CE1F2E"/>
<path d="M33.4259 10.9728C35.3703 10.9535 36.9757 12.5269 36.9857 14.4478C36.9956 16.2721 35.3703 17.8358 33.4658 17.8262C31.4516 17.8165 29.9061 16.3204 29.9161 14.3705C29.9161 12.5366 31.5214 10.9825 33.4259 10.9728Z" fill="#FFA32C"/>
</svg>
