<svg width="126" height="126" viewBox="0 0 126 126" fill="none" xmlns="http://www.w3.org/2000/svg">
<path d="M63 0.5C28.5 0.5 0.5 28.5 0.5 63C0.5 97.5 28.5 125.5 63 125.5C97.5 125.5 125.5 97.5 125.5 63C125.5 28.5 97.5 0.5 63 0.5ZM46.0625 89.8125L23.625 67.375C21.1875 64.9375 21.1875 61 23.625 58.5625C26.0625 56.125 30 56.125 32.4375 58.5625L50.5 76.5625L93.5 33.5625C95.9375 31.125 99.875 31.125 102.313 33.5625C104.75 36 104.75 39.9375 102.313 42.375L54.875 89.8125C52.5 92.25 48.5 92.25 46.0625 89.8125Z" fill="#12B022"/>
</svg>
