<svg width="89" height="18" viewBox="0 0 89 18" fill="none" xmlns="http://www.w3.org/2000/svg">
<path d="M30.2691 2.53516H28.9834C28.3858 2.53516 27.918 2.96738 27.918 3.5185C27.918 4.06963 28.3858 4.50185 28.9834 4.50185H30.2691C31.7948 4.50185 32.8957 4.80996 33.5465 5.42097C34.0956 5.9313 34.3626 6.68204 34.3626 7.71486C34.3626 8.74855 34.0956 9.49929 33.5428 10.0122C32.8967 10.6198 31.7958 10.9279 30.2701 10.9279H28.9834C28.3858 10.9279 27.918 11.3601 27.918 11.9121C27.918 12.4632 28.3858 12.8954 28.9834 12.8954H30.2691C32.3728 12.8954 33.9817 12.3973 35.0545 11.4104C36.0088 10.5234 36.4925 9.27971 36.4925 7.71486C36.4925 6.15001 36.0088 4.90629 35.0508 4.01582C33.9807 3.03334 32.3719 2.53516 30.2691 2.53516Z" fill="white"/>
<path d="M39.5166 8.70714H45.3104C45.908 8.70714 46.3758 8.27232 46.3758 7.71685C46.3758 7.16139 45.908 6.72656 45.3104 6.72656H39.5166C38.919 6.72656 38.4512 7.16139 38.4512 7.71685C38.4512 8.27232 38.919 8.70714 39.5166 8.70714Z" fill="white"/>
<path d="M45.9612 2.53516H39.5166C38.919 2.53516 38.4512 2.96738 38.4512 3.5185C38.4512 4.06963 38.919 4.50185 39.5166 4.50185H45.9603C46.5579 4.50185 47.0257 4.06963 47.0257 3.5185C47.0266 2.96738 46.5588 2.53516 45.9612 2.53516Z" fill="white"/>
<path d="M45.9612 10.9297H39.5166C38.919 10.9297 38.4512 11.3619 38.4512 11.913C38.4512 12.465 38.919 12.8964 39.5166 12.8964H45.9603C46.5579 12.8964 47.0257 12.4642 47.0257 11.913C47.0266 11.3619 46.5588 10.9297 45.9612 10.9297Z" fill="white"/>
<path d="M56.0189 3.08975C55.2999 2.72176 54.424 2.53516 53.4156 2.53516H50.1933C49.5957 2.53516 49.1279 2.96738 49.1279 3.5185C49.1279 4.06963 49.5957 4.50185 50.1933 4.50185H53.4156C54.0561 4.50185 54.5893 4.6086 54.9992 4.8195C55.4063 5.02867 55.5716 5.30206 55.5716 5.76119C55.5716 6.22118 55.4063 6.49371 54.9899 6.70808C54.5809 6.92419 54.0505 7.03355 53.4147 7.03355H50.1923C49.5948 7.03355 49.127 7.4623 49.127 8.01082V11.906C49.127 12.4615 49.5919 12.8963 50.1849 12.8963C50.7778 12.8963 51.2428 12.4615 51.2428 11.906V9.00111H53.4137C54.4259 9.00111 55.3055 8.80843 56.0161 8.43436C57.1179 7.87195 57.7014 6.94763 57.7014 5.76119C57.7024 4.57562 57.1197 3.65216 56.0189 3.08975Z" fill="white"/>
<path d="M66.8099 10.9287H61.4166V3.52545C61.4166 2.96998 60.9554 2.53516 60.3662 2.53516C59.7686 2.53516 59.3008 2.96998 59.3008 3.52545V11.906C59.3008 12.1143 59.3708 12.3079 59.4885 12.4667V12.721H59.762C59.9339 12.8312 60.1421 12.8954 60.3662 12.8954H66.8099C67.4075 12.8954 67.8753 12.4632 67.8753 11.9121C67.8753 11.361 67.4075 10.9287 66.8099 10.9287Z" fill="white"/>
<path d="M74.8783 3.13315L74.8521 3.08107C74.6691 2.74432 74.3003 2.53516 73.8904 2.53516C73.487 2.53516 73.1238 2.74519 72.9417 3.08455L69.0901 11.4599C69.0097 11.5953 68.9668 11.7481 68.9668 11.906C68.9668 12.4615 69.4346 12.8963 70.0322 12.8963C70.4337 12.8963 70.796 12.6871 70.9799 12.3513L73.8923 6.02937L76.7896 12.3009L76.813 12.3478C76.9951 12.6863 77.3592 12.8972 77.7626 12.8972C78.3602 12.8972 78.828 12.4623 78.828 11.9069C78.828 11.7498 78.786 11.5988 78.7066 11.4634L74.8783 3.13315Z" fill="white"/>
<path d="M87.9339 2.53516C87.3363 2.53516 86.8685 2.96998 86.8685 3.52545V8.82926L82.3501 2.95609C82.1512 2.69225 81.831 2.53602 81.4892 2.53602C80.8916 2.53602 80.4238 2.97085 80.4238 3.52631V11.9069C80.4238 12.4623 80.8888 12.8972 81.4827 12.8972C82.0756 12.8972 82.5406 12.4623 82.5406 11.9069V6.60306L87.058 12.4754C87.2569 12.7392 87.5818 12.8963 87.9339 12.8963C88.5315 12.8963 88.9993 12.4615 88.9993 11.906V3.52545C88.9993 2.96998 88.5315 2.53516 87.9339 2.53516Z" fill="white"/>
<path d="M14.3717 7.84375C10.6405 7.84115 7.61328 10.6515 7.61328 14.1196V16.7268C7.61328 17.2927 8.10723 17.751 8.71509 17.751C9.32389 17.751 9.8169 17.2927 9.8169 16.7268V14.0676C9.8169 11.7606 11.8235 9.88855 14.3054 9.88074H14.3539C15.1252 9.87814 15.6247 9.46762 15.6257 8.86876C15.6285 8.25775 15.1429 7.84722 14.3717 7.84375Z" fill="white"/>
<path d="M12.6288 0C5.65377 0 0 5.25521 0 11.7385V16.6283C0 17.1448 0.450061 17.5631 1.00563 17.5631C1.56121 17.5631 2.0122 17.1448 2.0122 16.6283V11.5701C2.0122 6.31233 6.62299 2.06216 12.2796 2.10556L16.4422 2.13767C16.5832 2.1151 16.7372 2.11424 16.9016 2.14461C17.191 2.19669 17.4721 2.26005 17.7457 2.33555C18.1136 2.41714 18.4254 2.51695 18.6476 2.64106C20.1276 3.23645 21.3023 4.23021 22.1025 5.65445C22.7944 6.88689 23.0652 8.18703 22.9615 9.43335C22.955 11.9555 20.8737 13.8597 19.4339 14.7858C19.2238 15.0323 18.2116 15.3872 17.8951 15.4975C17.3077 15.7023 16.6887 15.8177 16.0631 15.8576L15.8212 15.8733C15.5243 15.8924 15.2246 15.901 14.9323 15.8481C14.641 15.7943 14.3562 15.6736 14.1592 15.4662C13.922 15.2163 13.837 14.8491 13.9426 14.5306C14.2357 13.6497 15.3824 13.864 16.1303 13.746C17.0323 13.6037 17.9305 13.2478 18.6775 12.7583C19.2088 12.4103 19.6766 11.9772 20.0408 11.4755C20.2658 11.1674 20.4554 10.8333 20.5861 10.4809C20.6122 10.4097 20.6384 10.3377 20.6561 10.2639C20.7784 9.77791 20.9017 9.12524 20.898 8.88483C20.8783 7.63243 20.3807 6.38958 19.4516 5.47393C17.3059 3.36143 13.3608 3.55237 10.5606 4.07051C8.95827 4.36734 7.46429 5.10159 6.29338 6.15958C4.65094 7.64371 3.70973 9.71368 3.70973 11.8418V16.775C3.70973 17.2611 4.09163 17.695 4.61266 17.741C5.21025 17.794 5.7126 17.3591 5.7126 16.8149C5.7126 16.8149 5.7126 12.6854 5.7126 12.6846C5.7126 9.52361 8.16366 6.7515 11.4822 6.10056C12.5177 5.89747 13.7231 5.92698 14.7876 5.93566C15.8604 5.94434 17.0229 6.13875 17.8157 6.86432C18.5627 7.54824 18.8867 8.53332 18.6635 9.48716C18.4179 10.5356 17.5458 11.3315 16.4515 11.6326C16.0295 11.7489 15.6289 11.7481 15.2152 11.7472C15.063 11.7472 14.909 11.7463 14.7521 11.7515C14.0649 11.775 13.3982 12.0319 12.8604 12.4224C11.7968 13.1931 11.3804 14.5271 11.8099 15.6736C12.9229 18.6532 17.5356 17.8938 19.8438 16.7993C25.7637 13.9925 26.4976 7.21583 23.1044 3.45082C21.4685 1.63602 19.517 0.50339 17.0239 0.105885C16.5738 0.0338486 16.1228 0.00520748 15.6718 0H12.6288Z" fill="white"/>
<path d="M28.946 16.0234L29.651 17.7497V17.7662H29.3737L29.1776 17.2689H28.3792L28.185 17.7662H27.918V17.7497L28.622 16.0234H28.946ZM28.4595 17.0641H29.0954L28.7779 16.2569L28.4595 17.0641Z" fill="white"/>
<path d="M33.6225 16.8011V17.6508C33.5086 17.7011 33.4022 17.7384 33.3013 17.7627C33.2014 17.787 33.0847 17.7992 32.9512 17.7992C32.7448 17.7992 32.5749 17.761 32.4413 17.6837C32.3087 17.6065 32.2107 17.5006 32.1491 17.3661C32.0875 17.2316 32.0566 17.0753 32.0566 16.8983C32.0566 16.69 32.0968 16.519 32.178 16.3836C32.2593 16.2482 32.3676 16.1493 32.502 16.0868C32.6365 16.0243 32.7868 15.9922 32.9502 15.9922C33.0716 15.9922 33.1837 16.0061 33.2854 16.0321C33.3881 16.059 33.4843 16.0989 33.5749 16.1501L33.4591 16.3385C33.3919 16.2986 33.3181 16.2673 33.2378 16.243C33.1575 16.2187 33.0688 16.2066 32.9698 16.2066C32.7523 16.2066 32.5926 16.2673 32.4908 16.388C32.39 16.5086 32.3386 16.6752 32.3386 16.887C32.3386 17.1092 32.3872 17.281 32.4834 17.4017C32.5795 17.5223 32.7373 17.5831 32.9549 17.5831C33.0894 17.5831 33.2229 17.5605 33.3545 17.5162V17.0111H32.8746L32.9035 16.8011H33.6225Z" fill="white"/>
<path d="M36.606 17.5562H37.5257V17.7662H36.3398V16.0234H37.5117V16.2335H36.606V16.7768H37.3987L37.3698 16.9816H36.606V17.5562Z" fill="white"/>
<path d="M41.7624 16.0243V17.7671H41.4673L40.6428 16.6379L40.6055 16.5867C40.6018 16.5798 40.5896 16.5624 40.5691 16.5355C40.5485 16.5086 40.5317 16.4834 40.5168 16.46C40.5018 16.4366 40.4888 16.4131 40.4776 16.3897V17.7662H40.2227V16.0234H40.5028L41.3506 17.1769C41.3581 17.1873 41.3749 17.2099 41.4001 17.2429C41.4253 17.2758 41.4458 17.3062 41.4636 17.334C41.4813 17.3618 41.4953 17.3887 41.5075 17.4138V16.0234H41.7624V16.0243Z" fill="white"/>
<path d="M44.8214 17.689C44.6925 17.6152 44.5963 17.511 44.5338 17.3774C44.4712 17.2429 44.4395 17.084 44.4395 16.9018C44.4395 16.69 44.4796 16.5164 44.559 16.381C44.6393 16.2456 44.7438 16.1467 44.8727 16.0851C45.0016 16.0234 45.1435 15.9922 45.2976 15.9922C45.4152 15.9922 45.5235 16.0061 45.6234 16.0321C45.7233 16.059 45.8176 16.0989 45.9082 16.1501L45.7924 16.3385C45.6421 16.2508 45.4806 16.2066 45.3088 16.2066C45.108 16.2066 44.9605 16.2673 44.8652 16.3897C44.77 16.5112 44.7224 16.6778 44.7224 16.887C44.7224 17.104 44.7728 17.2741 44.8727 17.3982C44.9726 17.5223 45.1211 17.5839 45.3153 17.5839C45.4133 17.5839 45.502 17.5727 45.5814 17.5492C45.6608 17.5258 45.7392 17.4928 45.8186 17.4494L45.926 17.6299C45.8232 17.6855 45.7243 17.728 45.6262 17.7567C45.5291 17.7853 45.4208 17.8001 45.3041 17.8001C45.1117 17.7992 44.9502 17.7627 44.8214 17.689Z" fill="white"/>
<path d="M49.9631 16.0234V16.0399L49.2684 17.0858V17.7662H49.0023V17.078L48.3281 16.0399V16.0234H48.6204L49.1442 16.8601L49.6886 16.0234H49.9631Z" fill="white"/>
</svg>
