<svg width="135" height="50" viewBox="0 0 135 50" fill="none" xmlns="http://www.w3.org/2000/svg">
<mask id="mask0_781_11014" style="mask-type:luminance" maskUnits="userSpaceOnUse" x="0" y="0" width="76" height="50">
<path d="M48.9356 5.36106C48.6876 8.72637 47.2859 13.9373 46.4422 16.8375C45.5984 19.7341 42.1751 29.0977 40.9491 31.434C39.723 33.7703 37.8151 36.3996 36.6889 36.3996C35.5628 36.3996 35.1564 33.9314 34.8912 30.5954C34.626 27.2631 37.3846 10.7368 37.5602 6.71598C37.7324 2.69518 35.4767 1.55266 33.5928 1.35125C31.7055 1.14985 30.4416 1.95913 30.4416 1.95913C30.0421 11.1945 27.8518 15.4863 23.23 25.509C19.9961 32.5252 12.8155 42.6285 6.15836 42.5882C1.09921 42.3429 2.02219 35.1985 2.02219 35.1985C-0.450567 35.5683 -0.123392 38.6333 0.276105 40.0139C0.679047 41.3944 1.8431 44.075 6.39599 44.1226C11.5378 44.1738 15.6878 39.9297 16.0907 39.6111C22.2037 34.8249 31.096 12.7691 31.096 12.7691C31.096 12.7691 30.6551 23.0372 30.297 27.7574C29.9388 32.4776 30.9995 39.9333 34.6226 40.2702C38.2456 40.6108 42.4231 32.7559 44.6927 27.6402C46.9622 22.5245 49.4866 14.97 49.4866 14.97C48.6015 20.0454 47.7922 32.8548 51.0157 40.0322C54.2393 47.2132 61.9124 49.7656 66.3585 49.9817C67.7395 50.0476 71.0147 50.0439 73.8663 48.0079C76.7179 45.9682 74.0661 41.6178 73.3979 42.2696C72.7298 42.9178 69.3203 45.3896 65.9487 45.2285C60.4315 44.9612 56.6776 41.3944 54.625 38.2525C51.9835 34.2061 51.8629 29.376 52.6275 24.0003C53.4644 18.1119 55.8889 8.91313 56.0749 4.56642C56.2609 0.219716 54.4631 0.402814 52.5311 0.0366215C52.3968 0.010988 52.2659 0 52.135 0C50.4199 0 49.1663 2.23011 48.9356 5.36106Z" fill="white"/>
</mask>
<g mask="url(#mask0_781_11014)">
<path d="M48.8633 -39.4141L99.3377 31.9789L27.4178 89.4675L-23.0566 18.0709L48.8633 -39.4141Z" fill="url(#paint0_linear_781_11014)"/>
</g>
<mask id="mask1_781_11014" style="mask-type:luminance" maskUnits="userSpaceOnUse" x="57" y="15" width="29" height="26">
<path d="M60.8726 37.9835C59.4881 36.7384 60.2871 31.5312 62.5223 27.2321C63.6381 25.0789 65.181 23.2149 66.6206 21.9113C66.6722 24.0059 67.9499 25.9834 69.0657 26.8915C69.386 27.1771 69.7029 27.4005 70.0783 27.5726C69.6512 28.9312 69.0141 30.5132 68.2151 32.0988C66.1246 36.2734 63.6243 38.3717 61.9506 38.3717C61.5338 38.3717 61.1688 38.2435 60.8726 37.9835ZM69.2793 22.0285C69.5444 20.3879 70.6086 20.0474 70.8773 21.86C71.0357 22.878 70.8773 24.2952 70.4502 26.0456C69.5996 25.196 69.0141 23.5555 69.2793 22.0285ZM81.0128 20.5088L78.9981 23.0465C78.8259 23.2332 78.6571 23.42 78.4815 23.6031C78.237 23.8631 77.9856 24.1121 77.7376 24.3648C77.4828 24.6101 77.2313 24.8555 76.9696 25.0898C76.8422 25.2107 76.7113 25.3242 76.577 25.4377C76.4427 25.5512 76.3118 25.6684 76.1775 25.7746C75.9089 25.9943 75.6333 26.1957 75.3509 26.3898C75.0685 26.5766 74.7827 26.7487 74.49 26.8805L74.273 26.9757C74.2041 27.005 74.1421 27.016 74.0767 27.038C74.0113 27.0673 73.9079 27.0856 73.8046 27.1002C73.8563 26.6571 73.8563 26.2653 73.9079 25.8186C74.2282 21.7428 72.6302 21.3474 71.4076 19.5933C70.3435 18.0663 69.4377 17.5573 67.788 17.6708C64.5955 17.8978 61.3479 21.1789 59.3263 25.0276C56.9327 29.5537 56.1337 34.4754 58.4756 37.7565C60.604 40.697 63.2661 40.924 65.181 40.2466C69.1174 38.8331 72.4718 33.1168 73.5876 28.3087C74.0698 28.2574 74.5451 28.056 74.9101 27.6862C75.2304 27.5287 75.5266 27.3419 75.809 27.1442C76.1121 26.9281 76.4014 26.7011 76.6803 26.4667C76.8112 26.3605 76.9352 26.247 77.0626 26.1372C76.6562 27.2028 76.2911 28.283 75.9812 29.3816C75.6678 30.4985 75.4129 31.6337 75.2545 32.7872C75.1719 33.3621 75.1305 33.9444 75.1099 34.5303C75.0892 35.1125 75.1271 35.6985 75.2063 36.2734C75.2821 36.8483 75.4336 37.4159 75.6678 37.9432C75.902 38.4705 76.2257 38.9502 76.6321 39.3421C76.2326 38.9429 75.9226 38.4559 75.7022 37.9286C75.4784 37.4012 75.3406 36.8373 75.2752 36.2624C75.2063 35.6911 75.1822 35.1125 75.2132 34.534C75.2407 33.9554 75.2958 33.3804 75.3888 32.8092C75.5679 31.6667 75.8434 30.5461 76.174 29.4439C76.5047 28.3416 76.8973 27.2614 77.3278 26.1994C77.3967 26.031 77.469 25.8588 77.5413 25.6904C77.7927 25.456 78.0303 25.2107 78.2749 24.969C78.5228 24.7053 78.7777 24.4453 79.0222 24.1744C79.5147 23.6397 79.9899 23.0904 80.4549 22.5338C81.3882 21.4206 82.2802 20.2744 83.148 19.1099C84.0159 17.9454 84.8562 16.7663 85.6759 15.5542L85.2488 15.1953L81.0128 20.5088Z" fill="white"/>
</mask>
<g mask="url(#mask1_781_11014)">
<path d="M75.0098 0.109375L97.299 31.6349L66.7994 56.0124L44.5137 24.4868L75.0098 0.109375Z" fill="url(#paint1_linear_781_11014)"/>
</g>
<mask id="mask2_781_11014" style="mask-type:luminance" maskUnits="userSpaceOnUse" x="74" y="18" width="15" height="23">
<path d="M75.5059 29.7773C72.9505 36.2845 75.7711 40.4701 79.2839 40.5836C83.5406 40.7521 87.0534 35.7755 87.7457 34.1313C88.2795 32.8313 88.5447 31.8133 88.2795 30.9051C88.0659 30.1142 87.4805 30.2277 87.1602 30.9051C85.1902 35.1493 82.1596 39.1664 79.7626 39.0529C77.5275 38.9394 76.942 35.4313 78.6984 31.3006C80.5168 27.0272 83.1514 22.1568 85.173 18.4619C84.5566 18.623 82.7726 18.7695 80.8784 18.2422C78.6881 22.5633 76.5804 27.0601 75.5059 29.7773Z" fill="white"/>
</mask>
<g mask="url(#mask2_781_11014)">
<path d="M82.9131 10.2852L98.707 32.6302L78.5806 48.7171L62.7832 26.3757L82.9131 10.2852Z" fill="url(#paint2_linear_781_11014)"/>
</g>
<mask id="mask3_781_11014" style="mask-type:luminance" maskUnits="userSpaceOnUse" x="81" y="6" width="8" height="11">
<path d="M86.581 7.28053C85.4582 8.82586 83.6054 12.1289 81.5562 15.9959C81.3599 16.0179 81.2911 16.0875 81.3152 16.1827C82.2932 16.6038 85.2757 16.7906 85.7165 16.7063C85.7165 16.7137 85.7923 16.6953 85.9266 16.666C86.915 13.9965 88.7024 8.73065 88.1652 7.28419C87.9964 6.85575 87.7416 6.62505 87.4523 6.62505C87.1836 6.62138 86.8737 6.83377 86.581 7.28053Z" fill="white"/>
</mask>
<g mask="url(#mask3_781_11014)">
<path d="M86.0289 2.83984L93.2956 13.1189L83.9694 20.5746L76.6992 10.2955L86.0289 2.83984Z" fill="url(#paint3_linear_781_11014)"/>
</g>
<mask id="mask4_781_11014" style="mask-type:luminance" maskUnits="userSpaceOnUse" x="75" y="8" width="47" height="11">
<path d="M75.1644 9.70794C74.8131 15.3876 78.1331 17.4895 80.8744 18.2549C82.7686 18.7822 84.5526 18.6357 85.169 18.4746C85.3102 18.438 85.3929 18.4014 85.3998 18.3684C97.0403 16.6729 108.419 11.1837 119.977 17.4712C122.422 14.0839 121.816 11.6707 118.203 10.6747C116.313 10.1547 114.215 10.0448 112.314 10.1437C106.308 10.4513 99.978 13.0879 93.8271 14.6442C92.88 14.8822 91.5954 15.2191 90.3246 15.5487C88.4132 16.0467 86.5397 16.5338 85.9233 16.6766C85.7889 16.7095 85.7132 16.7242 85.7132 16.7169C85.2723 16.8011 82.2899 16.6143 81.3118 16.1932C81.3015 16.1896 81.2877 16.1822 81.2774 16.1786C80.5473 15.9222 79.9377 15.5121 79.3419 15.1459C76.6694 13.5017 76.5798 9.42231 76.5798 8.59105C76.5798 8.20655 76.4145 8.02345 76.1941 8.02345C75.7981 8.01979 75.2332 8.61669 75.1644 9.70794Z" fill="white"/>
</mask>
<g mask="url(#mask4_781_11014)">
<path d="M105.235 -16.2969L127.286 14.8954L92.0067 43.0959L69.9551 11.9036L105.235 -16.2969Z" fill="url(#paint4_linear_781_11014)"/>
</g>
<mask id="mask5_781_11014" style="mask-type:luminance" maskUnits="userSpaceOnUse" x="85" y="17" width="19" height="24">
<path d="M87.0546 26.3841C83.5969 33.6823 85.8836 40.6986 92.6407 40.5887C96.6839 40.5301 100.889 37.758 102.911 34.422C103.816 32.895 104.026 31.4815 103.868 31.0274C103.654 30.4635 103.176 30.5184 102.911 30.9725C100.73 34.5392 96.8974 39.0653 92.4271 39.0067C89.2863 38.9518 88.1704 34.2536 91.0978 27.8598C93.4948 22.7112 97.4828 19.0895 98.3886 19.8842C99.1325 20.5067 97.5379 22.9382 96.9525 24.9779C96.2086 27.5266 96.9525 29.2221 98.2302 29.8995C98.9224 30.295 99.1359 30.1266 99.346 29.4491C100.41 26.3914 102.539 23.3959 101.423 21.0157C100.786 19.7157 99.9315 18.8112 98.4954 17.9031C98.0132 17.5955 97.445 17.4453 96.8113 17.4453C93.9528 17.4417 89.8442 20.547 87.0546 26.3841Z" fill="white"/>
</mask>
<g mask="url(#mask5_781_11014)">
<path d="M96.6494 7.00391L114.534 32.3005L90.9703 51.1338L73.0859 25.8372L96.6494 7.00391Z" fill="url(#paint5_linear_781_11014)"/>
</g>
<mask id="mask6_781_11014" style="mask-type:luminance" maskUnits="userSpaceOnUse" x="100" y="2" width="24" height="39">
<path d="M118.128 2.84348C113.816 8.55975 102.747 28.477 100.887 34.1347C99.7713 37.5293 100.25 39.1149 101.101 40.1329C101.421 40.5284 101.793 40.4149 102.006 39.9059C103.284 36.4563 105.251 32.4941 107.169 29.1581C110.255 23.7824 116.058 19.9337 116.798 20.3878C117.649 20.8968 113.02 26.7815 111.264 32.2707C109.666 37.1924 110.785 40.6456 115.255 40.6456C118.396 40.6456 121.64 37.8149 123.132 34.5924C123.931 32.8933 123.931 31.7068 123.662 31.0843C123.448 30.6339 122.918 30.6339 122.705 31.1429C121.055 34.7645 118.128 38.8366 115.947 38.9501C113.981 39.0636 113.712 36.4014 115.042 33.1203C116.268 30.1761 118.82 26.0455 119.991 23.559C121.375 20.6734 119.725 17.8427 117.914 17.6157C116.478 17.4473 113.709 19.3148 111.529 21.5779C113.816 17.7878 116.636 13.2031 117.914 10.94C119.936 7.37695 120.097 4.54628 119.405 2.90574C119.267 2.55053 119.054 2.36743 118.82 2.36743C118.599 2.36011 118.358 2.51757 118.128 2.84348Z" fill="white"/>
</mask>
<g mask="url(#mask6_781_11014)">
<path d="M115.206 -9.97656L141.218 26.8185L108.491 52.9757L82.4785 16.1806L115.206 -9.97656Z" fill="url(#paint6_linear_781_11014)"/>
</g>
<mask id="mask7_781_11014" style="mask-type:luminance" maskUnits="userSpaceOnUse" x="121" y="10" width="14" height="31">
<path d="M128.881 18.5762C126.911 21.5204 123.402 28.1961 122.069 32.3268C120.578 36.9665 121.59 40.5881 125.633 40.5881C128.612 40.5881 131.967 38.2115 133.561 34.7034C134.198 33.2899 134.36 32.0998 133.933 31.1953C133.72 30.7412 133.348 30.6862 133.083 31.1953C131.488 35.0989 128.561 38.834 126.164 38.9476C124.459 39.0611 124.356 36.8529 125.63 33.5718C126.749 30.7412 128.981 26.8962 130.1 24.406C131.374 21.5754 130.951 19.1438 130.152 18.2357C129.983 18.0343 129.825 17.9391 129.663 17.9391C129.425 17.9427 129.174 18.1661 128.881 18.5762ZM125.258 10.5054C124.197 11.1938 123.519 12.7574 123.963 14.4676C124.366 16.1118 125.764 16.694 126.625 16.1228C127.49 15.5552 128.227 14.1819 127.927 12.5707C127.7 11.2487 126.825 10.293 125.943 10.293C125.713 10.2966 125.482 10.3625 125.258 10.5054Z" fill="white"/>
</mask>
<g mask="url(#mask7_781_11014)">
<path d="M129.387 3.25781L148.047 29.6493L125.558 47.6257L106.898 21.2306L129.387 3.25781Z" fill="url(#paint7_linear_781_11014)"/>
</g>
<defs>
<linearGradient id="paint0_linear_781_11014" x1="18.5489" y1="-2.70357" x2="116.176" y2="119.439" gradientUnits="userSpaceOnUse">
<stop stop-color="#EFC75F"/>
<stop offset="0.23" stop-color="#A8702B"/>
<stop offset="0.33" stop-color="#E2B756"/>
<stop offset="0.46" stop-color="#F9F2B7"/>
<stop offset="0.58" stop-color="#E2B756"/>
<stop offset="0.69" stop-color="#905E21"/>
<stop offset="1" stop-color="#E2B756"/>
</linearGradient>
<linearGradient id="paint1_linear_781_11014" x1="38.1364" y1="-18.3581" x2="135.763" y2="103.784" gradientUnits="userSpaceOnUse">
<stop stop-color="#EFC75F"/>
<stop offset="0.23" stop-color="#A8702B"/>
<stop offset="0.33" stop-color="#E2B756"/>
<stop offset="0.46" stop-color="#F9F2B7"/>
<stop offset="0.58" stop-color="#E2B756"/>
<stop offset="0.69" stop-color="#905E21"/>
<stop offset="1" stop-color="#E2B756"/>
</linearGradient>
<linearGradient id="paint2_linear_781_11014" x1="43.7753" y1="-22.8446" x2="141.402" y2="99.2978" gradientUnits="userSpaceOnUse">
<stop stop-color="#EFC75F"/>
<stop offset="0.23" stop-color="#A8702B"/>
<stop offset="0.33" stop-color="#E2B756"/>
<stop offset="0.46" stop-color="#F9F2B7"/>
<stop offset="0.58" stop-color="#E2B756"/>
<stop offset="0.69" stop-color="#905E21"/>
<stop offset="1" stop-color="#E2B756"/>
</linearGradient>
<linearGradient id="paint3_linear_781_11014" x1="54.4936" y1="-31.4508" x2="152.121" y2="90.6917" gradientUnits="userSpaceOnUse">
<stop stop-color="#EFC75F"/>
<stop offset="0.23" stop-color="#A8702B"/>
<stop offset="0.33" stop-color="#E2B756"/>
<stop offset="0.46" stop-color="#F9F2B7"/>
<stop offset="0.58" stop-color="#E2B756"/>
<stop offset="0.69" stop-color="#905E21"/>
<stop offset="1" stop-color="#E2B756"/>
</linearGradient>
<linearGradient id="paint4_linear_781_11014" x1="62.4568" y1="-37.8092" x2="160.084" y2="84.3333" gradientUnits="userSpaceOnUse">
<stop stop-color="#EFC75F"/>
<stop offset="0.23" stop-color="#A8702B"/>
<stop offset="0.33" stop-color="#E2B756"/>
<stop offset="0.46" stop-color="#F9F2B7"/>
<stop offset="0.58" stop-color="#E2B756"/>
<stop offset="0.69" stop-color="#905E21"/>
<stop offset="1" stop-color="#E2B756"/>
</linearGradient>
<linearGradient id="paint5_linear_781_11014" x1="52.3009" y1="-29.7109" x2="149.928" y2="92.4316" gradientUnits="userSpaceOnUse">
<stop stop-color="#EFC75F"/>
<stop offset="0.23" stop-color="#A8702B"/>
<stop offset="0.33" stop-color="#E2B756"/>
<stop offset="0.46" stop-color="#F9F2B7"/>
<stop offset="0.58" stop-color="#E2B756"/>
<stop offset="0.69" stop-color="#905E21"/>
<stop offset="1" stop-color="#E2B756"/>
</linearGradient>
<linearGradient id="paint6_linear_781_11014" x1="67.2366" y1="-41.616" x2="164.864" y2="80.5265" gradientUnits="userSpaceOnUse">
<stop stop-color="#EFC75F"/>
<stop offset="0.23" stop-color="#A8702B"/>
<stop offset="0.33" stop-color="#E2B756"/>
<stop offset="0.46" stop-color="#F9F2B7"/>
<stop offset="0.58" stop-color="#E2B756"/>
<stop offset="0.69" stop-color="#905E21"/>
<stop offset="1" stop-color="#E2B756"/>
</linearGradient>
<linearGradient id="paint7_linear_781_11014" x1="75.4648" y1="-48.2036" x2="173.092" y2="73.9389" gradientUnits="userSpaceOnUse">
<stop stop-color="#EFC75F"/>
<stop offset="0.23" stop-color="#A8702B"/>
<stop offset="0.33" stop-color="#E2B756"/>
<stop offset="0.46" stop-color="#F9F2B7"/>
<stop offset="0.58" stop-color="#E2B756"/>
<stop offset="0.69" stop-color="#905E21"/>
<stop offset="1" stop-color="#E2B756"/>
</linearGradient>
</defs>
</svg>
