<svg width="115" height="40" viewBox="0 0 115 40" fill="none" xmlns="http://www.w3.org/2000/svg">
<mask id="mask0_781_10381" style="mask-type:luminance" maskUnits="userSpaceOnUse" x="0" y="0" width="64" height="40">
<path d="M41.5811 4.28885C41.3704 6.9811 40.1793 11.1498 39.4624 13.47C38.7454 15.7873 35.8366 23.2781 34.7948 25.1472C33.7531 27.0162 32.1319 29.1197 31.1749 29.1197C30.218 29.1197 29.8727 27.1451 29.6474 24.4763C29.4221 21.8104 31.7661 8.58942 31.9153 5.37278C32.0616 2.15614 30.1449 1.24213 28.5442 1.081C26.9405 0.919877 25.8665 1.56731 25.8665 1.56731C25.5271 8.95561 23.6659 12.389 19.7388 20.4072C16.9909 26.0202 10.8895 34.1028 5.23282 34.0706C0.934008 33.8743 1.71827 28.1588 1.71827 28.1588C-0.382851 28.4546 -0.104847 30.9067 0.23461 32.0111C0.576993 33.1156 1.5661 35.26 5.43474 35.2981C9.80378 35.3391 13.33 31.9437 13.6724 31.6889C18.8667 27.86 26.4225 10.2153 26.4225 10.2153C26.4225 10.2153 26.048 18.4298 25.7436 22.2059C25.4393 25.9821 26.3406 31.9467 29.4191 32.2162C32.4977 32.4886 36.0473 26.2048 37.9758 22.1122C39.9043 18.0196 42.0493 11.976 42.0493 11.976C41.2972 16.0363 40.6095 26.2839 43.3486 32.0258C46.0876 37.7706 52.6076 39.8125 56.3855 39.9853C57.5589 40.0381 60.3419 40.0351 62.7649 38.4063C65.188 36.7746 62.9347 33.2943 62.367 33.8157C61.7992 34.3342 58.9021 36.3117 56.0372 36.1828C51.3492 35.9689 48.1595 33.1156 46.4154 30.602C44.1709 27.3649 44.0685 23.5008 44.7181 19.2002C45.4292 14.4895 47.4894 7.13051 47.6474 3.65314C47.8054 0.175773 46.2779 0.322251 44.6362 0.0292972C44.522 0.00879042 44.4108 0 44.2996 0C42.8423 0 41.7771 1.78409 41.5811 4.28885Z" fill="white"/>
</mask>
<g mask="url(#mask0_781_10381)">
<path d="M41.5192 -31.5312L84.4079 25.5831L23.2968 71.574L-19.5918 14.4567L41.5192 -31.5312Z" fill="url(#paint0_linear_781_10381)"/>
</g>
<mask id="mask1_781_10381" style="mask-type:luminance" maskUnits="userSpaceOnUse" x="48" y="12" width="25" height="21">
<path d="M51.7233 30.3868C50.5469 29.3907 51.2258 25.2249 53.125 21.7857C54.0732 20.0631 55.3842 18.5719 56.6074 17.529C56.6513 19.2047 57.737 20.7867 58.6851 21.5132C58.9573 21.7417 59.2265 21.9204 59.5455 22.0581C59.1826 23.145 58.6412 24.4105 57.9623 25.679C56.186 29.0187 54.0615 30.6973 52.6393 30.6973C52.2852 30.6973 51.975 30.5948 51.7233 30.3868ZM58.8665 17.6228C59.0919 16.3103 59.9961 16.0379 60.2244 17.488C60.359 18.3024 60.2244 19.4362 59.8615 20.8365C59.1387 20.1568 58.6412 18.8444 58.8665 17.6228ZM68.8366 16.407L67.1247 18.4372C66.9784 18.5866 66.835 18.736 66.6858 18.8825C66.478 19.0905 66.2644 19.2897 66.0537 19.4918C65.8371 19.6881 65.6235 19.8844 65.4011 20.0719C65.2928 20.1685 65.1816 20.2594 65.0675 20.3502C64.9534 20.441 64.8422 20.5347 64.728 20.6197C64.4998 20.7955 64.2657 20.9566 64.0257 21.1119C63.7857 21.2613 63.5429 21.399 63.2941 21.5044L63.1098 21.5806C63.0512 21.604 62.9986 21.6128 62.943 21.6304C62.8874 21.6538 62.7996 21.6685 62.7118 21.6802C62.7557 21.3257 62.7557 21.0123 62.7996 20.6549C63.0717 17.3943 61.7139 17.0779 60.675 15.6746C59.7708 14.453 59.0012 14.0458 57.5994 14.1366C54.8867 14.3183 52.1272 16.9431 50.4094 20.0221C48.3756 23.643 47.6967 27.5803 49.6866 30.2052C51.4951 32.5576 53.7571 32.7392 55.3842 32.1972C58.729 31.0664 61.5793 26.4934 62.5274 22.6469C62.9371 22.6059 63.3409 22.4448 63.6511 22.1489C63.9233 22.023 64.175 21.8735 64.4149 21.7153C64.6724 21.5425 64.9183 21.3609 65.1553 21.1734C65.2665 21.0884 65.3718 20.9976 65.4801 20.9097C65.1348 21.7622 64.8246 22.6264 64.5612 23.5053C64.2949 24.3988 64.0784 25.307 63.9438 26.2298C63.8735 26.6897 63.8384 27.1555 63.8209 27.6242C63.8033 28.09 63.8355 28.5588 63.9028 29.0187C63.9672 29.4786 64.0959 29.9327 64.2949 30.3546C64.4939 30.7764 64.769 31.1602 65.1143 31.4737C64.7749 31.1543 64.5115 30.7647 64.3242 30.3429C64.134 29.921 64.0169 29.4698 63.9613 29.0099C63.9028 28.5529 63.8823 28.09 63.9087 27.6272C63.9321 27.1643 63.9789 26.7044 64.0579 26.2473C64.2101 25.3333 64.4442 24.4369 64.7251 23.5551C65.006 22.6733 65.3396 21.8091 65.7054 20.9595C65.764 20.8248 65.8254 20.6871 65.8869 20.5523C66.1005 20.3648 66.3024 20.1685 66.5102 19.9752C66.7209 19.7643 66.9374 19.5563 67.1452 19.3395C67.5637 18.9118 67.9675 18.4723 68.3626 18.0271C69.1556 17.1365 69.9135 16.2195 70.651 15.2879C71.3884 14.3563 72.1024 13.413 72.7989 12.4433L72.4361 12.1562L68.8366 16.407Z" fill="white"/>
</mask>
<g mask="url(#mask1_781_10381)">
<path d="M63.7351 0.0859375L82.6745 25.3064L56.7587 44.8083L37.8223 19.5879L63.7351 0.0859375Z" fill="url(#paint1_linear_781_10381)"/>
</g>
<mask id="mask2_781_10381" style="mask-type:luminance" maskUnits="userSpaceOnUse" x="63" y="14" width="13" height="19">
<path d="M64.1584 23.8218C61.9871 29.0276 64.3838 32.3761 67.3686 32.4669C70.9856 32.6017 73.9705 28.6204 74.5587 27.305C75.0123 26.265 75.2376 25.4506 75.0123 24.7241C74.8308 24.0913 74.3334 24.1821 74.0612 24.7241C72.3873 28.1194 69.8121 31.3332 67.7754 31.2423C65.8762 31.1515 65.3787 28.345 66.8711 25.0405C68.4163 21.6217 70.6549 17.7254 72.3727 14.7695C71.8489 14.8984 70.333 15.0156 68.7235 14.5938C66.8624 18.0506 65.0714 21.6481 64.1584 23.8218Z" fill="white"/>
</mask>
<g mask="url(#mask2_781_10381)">
<path d="M70.4541 8.22656L83.8744 26.1026L66.7728 38.9721L53.3496 21.099L70.4541 8.22656Z" fill="url(#paint2_linear_781_10381)"/>
</g>
<mask id="mask3_781_10381" style="mask-type:luminance" maskUnits="userSpaceOnUse" x="69" y="5" width="6" height="9">
<path d="M73.5701 5.8213C72.6161 7.05757 71.0417 9.70002 69.3006 12.7936C69.1338 12.8112 69.0752 12.8669 69.0957 12.943C69.9268 13.2799 72.461 13.4293 72.8356 13.3619C72.8356 13.3678 72.9 13.3532 73.0141 13.3297C73.854 11.1941 75.3728 6.9814 74.9162 5.82423C74.7728 5.48147 74.5563 5.29691 74.3105 5.29691C74.0822 5.29398 73.8189 5.46389 73.5701 5.8213Z" fill="white"/>
</mask>
<g mask="url(#mask3_781_10381)">
<path d="M73.1013 2.26953L79.2759 10.4928L71.3514 16.4573L65.1738 8.23408L73.1013 2.26953Z" fill="url(#paint3_linear_781_10381)"/>
</g>
<mask id="mask4_781_10381" style="mask-type:luminance" maskUnits="userSpaceOnUse" x="63" y="6" width="41" height="9">
<path d="M63.8753 7.76948C63.5769 12.3132 66.3979 13.9948 68.7272 14.607C70.3367 15.0289 71.8526 14.9117 72.3764 14.7828C72.4964 14.7535 72.5666 14.7242 72.5725 14.6978C82.4635 13.3415 92.1322 8.95008 101.953 13.9801C104.031 11.2703 103.516 9.33971 100.446 8.54288C98.8394 8.12688 97.0573 8.039 95.4419 8.1181C90.3384 8.36418 84.9597 10.4734 79.7333 11.7185C78.9285 11.9089 77.837 12.1784 76.7572 12.4421C75.133 12.8405 73.5411 13.2301 73.0173 13.3444C72.9032 13.3708 72.8388 13.3825 72.8388 13.3766C72.4642 13.444 69.93 13.2946 69.0989 12.9577C69.0901 12.9548 69.0784 12.9489 69.0696 12.946C68.4492 12.7409 67.9313 12.4128 67.425 12.1198C65.1542 10.8045 65.0781 7.54097 65.0781 6.87597C65.0781 6.56837 64.9376 6.42189 64.7503 6.42189C64.4138 6.41896 63.9339 6.89648 63.8753 7.76948Z" fill="white"/>
</mask>
<g mask="url(#mask4_781_10381)">
<path d="M89.4229 -13.0352L108.16 11.9187L78.1828 34.4791L59.4453 9.52526L89.4229 -13.0352Z" fill="url(#paint4_linear_781_10381)"/>
</g>
<mask id="mask5_781_10381" style="mask-type:luminance" maskUnits="userSpaceOnUse" x="72" y="13" width="17" height="20">
<path d="M73.9766 21.1041C71.0385 26.9427 72.9816 32.5557 78.7231 32.4678C82.1587 32.421 85.7318 30.2033 87.4495 27.5345C88.2192 26.3129 88.3977 25.1821 88.2631 24.8188C88.0816 24.3677 87.6749 24.4116 87.4495 24.7749C85.5971 27.6282 82.3401 31.2491 78.5417 31.2023C75.8729 31.1583 74.9247 27.3997 77.4121 22.2847C79.4489 18.1658 82.8376 15.2685 83.6072 15.9042C84.2393 16.4022 82.8844 18.3474 82.3869 19.9792C81.7548 22.0182 82.3869 23.3745 83.4726 23.9165C84.0608 24.2329 84.2422 24.0981 84.4207 23.5562C85.325 21.11 87.1335 18.7136 86.1853 16.8094C85.644 15.7694 84.9182 15.0458 83.6979 14.3193C83.2883 14.0732 82.8054 13.9531 82.2669 13.9531C79.8381 13.9502 76.3469 16.4344 73.9766 21.1041Z" fill="white"/>
</mask>
<g mask="url(#mask5_781_10381)">
<path d="M82.1276 5.60156L97.3241 25.8388L77.302 40.9055L62.1055 20.6682L82.1276 5.60156Z" fill="url(#paint5_linear_781_10381)"/>
</g>
<mask id="mask6_781_10381" style="mask-type:luminance" maskUnits="userSpaceOnUse" x="85" y="1" width="21" height="32">
<path d="M100.38 2.27166C96.716 6.84468 87.3107 22.7785 85.7304 27.3046C84.7823 30.0203 85.189 31.2888 85.9119 32.1032C86.184 32.4196 86.5001 32.3288 86.6815 31.9216C87.7672 29.1619 89.4381 25.9922 91.0681 23.3234C93.6901 19.0228 98.621 15.9438 99.2502 16.3071C99.973 16.7143 96.04 21.4221 94.5475 25.8135C93.1897 29.7508 94.1408 32.5133 97.9392 32.5133C100.608 32.5133 103.365 30.2488 104.632 27.6708C105.311 26.3115 105.311 25.3623 105.082 24.8643C104.901 24.504 104.45 24.504 104.269 24.9112C102.867 27.8085 100.38 31.0661 98.5274 31.1569C96.8564 31.2478 96.6282 29.118 97.7577 26.4931C98.7995 24.1378 100.968 20.8332 101.963 18.8441C103.139 16.5356 101.738 14.2711 100.198 14.0894C98.978 13.9547 96.6252 15.4487 94.7729 17.2592C96.716 14.2271 99.1126 10.5593 100.198 8.74888C101.916 5.89844 102.054 3.6339 101.465 2.32146C101.348 2.0373 101.167 1.89082 100.968 1.89082C100.781 1.88496 100.576 2.01093 100.38 2.27166Z" fill="white"/>
</mask>
<g mask="url(#mask6_781_10381)">
<path d="M97.897 -7.98438L120 21.4517L92.1906 42.3774L70.0879 12.9413L97.897 -7.98438Z" fill="url(#paint6_linear_781_10381)"/>
</g>
<mask id="mask7_781_10381" style="mask-type:luminance" maskUnits="userSpaceOnUse" x="103" y="8" width="12" height="25">
<path d="M109.507 14.861C107.833 17.2164 104.851 22.5569 103.719 25.8614C102.452 29.5732 103.312 32.4705 106.748 32.4705C109.279 32.4705 112.129 30.5692 113.484 27.7627C114.025 26.6319 114.163 25.6798 113.8 24.9562C113.619 24.5929 113.303 24.549 113.077 24.9562C111.722 28.0791 109.235 31.0672 107.198 31.158C105.75 31.2489 105.662 29.4823 106.745 26.8575C107.696 24.5929 109.592 21.5169 110.543 19.5248C111.626 17.2603 111.266 15.3151 110.587 14.5885C110.444 14.4274 110.309 14.3513 110.171 14.3513C109.969 14.3542 109.756 14.5329 109.507 14.861ZM106.429 8.40429C105.527 8.95504 104.951 10.206 105.328 11.5741C105.671 12.8894 106.859 13.3552 107.59 12.8982C108.325 12.4441 108.951 11.3455 108.697 10.0566C108.503 8.99899 107.76 8.23438 107.011 8.23438C106.815 8.2373 106.619 8.29004 106.429 8.40429Z" fill="white"/>
</mask>
<g mask="url(#mask7_781_10381)">
<path d="M109.935 2.60547L125.79 23.7187L106.681 38.0998L90.8262 16.9837L109.935 2.60547Z" fill="url(#paint7_linear_781_10381)"/>
</g>
<defs>
<linearGradient id="paint0_linear_781_10381" x1="15.7608" y1="-2.16285" x2="92.6999" y2="100.078" gradientUnits="userSpaceOnUse">
<stop stop-color="#EFC75F"/>
<stop offset="0.23" stop-color="#A8702B"/>
<stop offset="0.33" stop-color="#E2B756"/>
<stop offset="0.46" stop-color="#F9F2B7"/>
<stop offset="0.58" stop-color="#E2B756"/>
<stop offset="0.69" stop-color="#905E21"/>
<stop offset="1" stop-color="#E2B756"/>
</linearGradient>
<linearGradient id="paint1_linear_781_10381" x1="32.4035" y1="-14.688" x2="109.343" y2="87.5528" gradientUnits="userSpaceOnUse">
<stop stop-color="#EFC75F"/>
<stop offset="0.23" stop-color="#A8702B"/>
<stop offset="0.33" stop-color="#E2B756"/>
<stop offset="0.46" stop-color="#F9F2B7"/>
<stop offset="0.58" stop-color="#E2B756"/>
<stop offset="0.69" stop-color="#905E21"/>
<stop offset="1" stop-color="#E2B756"/>
</linearGradient>
<linearGradient id="paint2_linear_781_10381" x1="37.1984" y1="-18.2773" x2="114.137" y2="83.9636" gradientUnits="userSpaceOnUse">
<stop stop-color="#EFC75F"/>
<stop offset="0.23" stop-color="#A8702B"/>
<stop offset="0.33" stop-color="#E2B756"/>
<stop offset="0.46" stop-color="#F9F2B7"/>
<stop offset="0.58" stop-color="#E2B756"/>
<stop offset="0.69" stop-color="#905E21"/>
<stop offset="1" stop-color="#E2B756"/>
</linearGradient>
<linearGradient id="paint3_linear_781_10381" x1="46.3055" y1="-25.163" x2="123.245" y2="77.0779" gradientUnits="userSpaceOnUse">
<stop stop-color="#EFC75F"/>
<stop offset="0.23" stop-color="#A8702B"/>
<stop offset="0.33" stop-color="#E2B756"/>
<stop offset="0.46" stop-color="#F9F2B7"/>
<stop offset="0.58" stop-color="#E2B756"/>
<stop offset="0.69" stop-color="#905E21"/>
<stop offset="1" stop-color="#E2B756"/>
</linearGradient>
<linearGradient id="paint4_linear_781_10381" x1="53.074" y1="-30.245" x2="130.013" y2="71.9958" gradientUnits="userSpaceOnUse">
<stop stop-color="#EFC75F"/>
<stop offset="0.23" stop-color="#A8702B"/>
<stop offset="0.33" stop-color="#E2B756"/>
<stop offset="0.46" stop-color="#F9F2B7"/>
<stop offset="0.58" stop-color="#E2B756"/>
<stop offset="0.69" stop-color="#905E21"/>
<stop offset="1" stop-color="#E2B756"/>
</linearGradient>
<linearGradient id="paint5_linear_781_10381" x1="44.4443" y1="-23.7703" x2="121.383" y2="78.4705" gradientUnits="userSpaceOnUse">
<stop stop-color="#EFC75F"/>
<stop offset="0.23" stop-color="#A8702B"/>
<stop offset="0.33" stop-color="#E2B756"/>
<stop offset="0.46" stop-color="#F9F2B7"/>
<stop offset="0.58" stop-color="#E2B756"/>
<stop offset="0.69" stop-color="#905E21"/>
<stop offset="1" stop-color="#E2B756"/>
</linearGradient>
<linearGradient id="paint6_linear_781_10381" x1="57.1366" y1="-33.2959" x2="134.076" y2="68.9449" gradientUnits="userSpaceOnUse">
<stop stop-color="#EFC75F"/>
<stop offset="0.23" stop-color="#A8702B"/>
<stop offset="0.33" stop-color="#E2B756"/>
<stop offset="0.46" stop-color="#F9F2B7"/>
<stop offset="0.58" stop-color="#E2B756"/>
<stop offset="0.69" stop-color="#905E21"/>
<stop offset="1" stop-color="#E2B756"/>
</linearGradient>
<linearGradient id="paint7_linear_781_10381" x1="64.1167" y1="-38.5637" x2="141.056" y2="63.6772" gradientUnits="userSpaceOnUse">
<stop stop-color="#EFC75F"/>
<stop offset="0.23" stop-color="#A8702B"/>
<stop offset="0.33" stop-color="#E2B756"/>
<stop offset="0.46" stop-color="#F9F2B7"/>
<stop offset="0.58" stop-color="#E2B756"/>
<stop offset="0.69" stop-color="#905E21"/>
<stop offset="1" stop-color="#E2B756"/>
</linearGradient>
</defs>
</svg>
